<svg xmlns="http://www.w3.org/2000/svg" viewBox="0 0 512 512" role="img" aria-label="QR code placeholder">
  <rect width="512" height="512" fill="#ffffff" />
  <rect x="16" y="16" width="480" height="480" fill="none" stroke="#111111" stroke-width="16" />

  <rect x="48" y="48" width="140" height="140" fill="#111111" />
  <rect x="64" y="64" width="108" height="108" fill="#ffffff" />
  <rect x="80" y="80" width="76" height="76" fill="#111111" />

  <rect x="324" y="48" width="140" height="140" fill="#111111" />
  <rect x="340" y="64" width="108" height="108" fill="#ffffff" />
  <rect x="356" y="80" width="76" height="76" fill="#111111" />

  <rect x="48" y="324" width="140" height="140" fill="#111111" />
  <rect x="64" y="340" width="108" height="108" fill="#ffffff" />
  <rect x="80" y="356" width="76" height="76" fill="#111111" />

  <rect x="240" y="232" width="40" height="40" fill="#111111" />
  <rect x="296" y="232" width="32" height="32" fill="#111111" />
  <rect x="240" y="288" width="32" height="32" fill="#111111" />
  <rect x="296" y="296" width="48" height="48" fill="#111111" />
  <rect x="360" y="256" width="24" height="24" fill="#111111" />

  <text x="256" y="480" text-anchor="middle" font-family="Georgia, 'Times New Roman', serif" font-size="28" fill="#111111">QR PLACEHOLDER</text>
</svg>
